<?xml version="1.0" standalone="no"?>
<!DOCTYPE svg PUBLIC "-//W3C//DTD SVG 20010904//EN"
 "http://www.w3.org/TR/2001/REC-SVG-20010904/DTD/svg10.dtd">
<svg version="1.0" xmlns="http://www.w3.org/2000/svg"
 width="500.000000pt" height="500.000000pt" viewBox="0 0 500.000000 500.000000"
 preserveAspectRatio="xMidYMid meet">
<metadata>
Created by potrace 1.14, written by Peter Selinger 2001-2017
</metadata>
<g transform="translate(0.000000,500.000000) scale(0.100000,-0.100000)"
fill="#000000" stroke="none">
<path d="M2256 4799 c-183 -25 -447 -95 -596 -158 -195 -83 -407 -212 -575
-350 -95 -78 -309 -297 -343 -351 -9 -14 -35 -50 -58 -80 -147 -195 -303 -536
-358 -781 -50 -227 -59 -323 -53 -584 8 -331 44 -527 147 -784 238 -597 686
-1047 1284 -1288 252 -101 468 -143 781 -150 181 -5 231 -2 360 16 271 39 421
83 656 193 224 104 416 234 597 405 360 338 590 769 685 1278 19 104 22 153
21 370 0 192 -4 273 -17 350 -37 212 -108 445 -181 600 -290 610 -779 1039
-1395 1226 -256 78 -342 90 -636 94 -137 2 -281 -1 -319 -6z m-250 -1324 c43
-25 82 -45 86 -45 3 0 78 -39 165 -86 87 -48 201 -109 253 -136 52 -27 118
-61 145 -76 28 -16 111 -60 185 -99 74 -39 187 -98 250 -133 63 -34 176 -94
250 -133 74 -39 170 -89 212 -111 43 -23 78 -43 78 -46 0 -3 -30 -23 -67 -45
-36 -21 -99 -60 -139 -86 -39 -26 -98 -62 -130 -80 -33 -17 -88 -51 -124 -73
-102 -65 -178 -112 -272 -169 -252 -151 -466 -282 -493 -302 -16 -12 -66 -42
-110 -67 -44 -25 -138 -82 -209 -127 -71 -45 -137 -86 -148 -92 -17 -9 -18 21
-18 971 0 539 1 980 3 980 2 0 39 -20 83 -45z"/>
</g>
</svg>
